<svg width="40" height="40" viewBox="0 0 40 40" fill="none" xmlns="http://www.w3.org/2000/svg">
<path d="M0 3.24467C0 4.45782 2.66667 8.06616 3.56589 8.06616C3.87597 8.06616 4.96124 6.16867 4.96124 5.63986C4.96124 5.51544 4.3721 5.14216 3.62791 4.79999C2.91473 4.45782 1.79845 3.8668 1.1783 3.49352C0.217054 2.9025 0 2.87139 0 3.24467Z" fill="#B8895F"/>
<path d="M34.5734 7.35077C34.2013 6.13762 34.2633 5.73324 34.6044 5.5466L38.4493 3.71133C39.3796 3.24473 39.9997 2.93367 39.9997 3.49358C39.9997 4.67562 35.7207 9.46601 35.1625 8.90609C35.0695 8.81277 34.7904 8.12843 34.5734 7.35077Z" fill="#B8895F"/>
<path d="M19.3183 3.71148C18.202 4.14697 17.5819 5.42233 17.6439 7.13318C17.7059 10.4927 19.5044 11.8614 21.3958 9.99497C21.985 9.37284 22.3571 8.62629 22.4811 7.66199C22.7602 5.88892 22.5431 5.01794 21.7059 4.08475C21.0237 3.36931 20.4346 3.27599 19.3183 3.71148Z" fill="#B8895F"/>
<path d="M5.63679 5.91131C5.63679 6.03573 5.48175 6.96893 5.32671 7.99544C5.14067 9.02195 4.92361 10.5462 4.8616 11.4171C4.64454 13.3146 4.14842 16.3942 3.62129 18.8205C3.40423 19.7848 3.34222 20.6868 3.49726 20.7491C3.62129 20.8424 4.61354 20.438 5.69881 19.847C6.78408 19.2871 10.474 17.514 13.9469 15.8965C17.3887 14.31 20.2104 12.8169 20.2104 12.5992C20.2104 12.3814 20.0244 12.1948 19.7763 12.1948C19.2182 12.1948 15.2492 10.3906 7.90036 6.78229C6.66005 6.19127 5.63679 5.78688 5.63679 5.91131Z" fill="#B8895F"/>
<path d="M28.992 8.50165C26.6044 9.7148 23.6897 11.1146 22.5424 11.6123C21.3951 12.0789 20.4648 12.6077 20.4648 12.7321C20.4648 12.8565 21.147 13.2609 21.9532 13.6031C22.7904 13.9764 26.2943 15.6561 29.7982 17.367C33.271 19.0778 36.2168 20.3843 36.3408 20.2599C36.4959 20.1043 36.4648 19.3889 36.3098 18.6112C36.1548 17.8647 35.7207 15.7805 35.3796 13.9764C35.0075 12.1722 34.5114 9.99476 34.2633 9.12378C34.0152 8.2528 33.7982 7.31961 33.7982 7.03965C33.7982 6.75969 33.7052 6.47973 33.5811 6.41752C33.4261 6.35531 31.3796 7.2885 28.992 8.50165Z" fill="#B8895F"/>
<path d="M16.8374 15.9051C14.3877 17.8337 13.6436 18.5803 13.6436 19.1402C13.6436 19.5446 13.7366 19.8868 13.8916 19.8868C14.0156 19.8868 15.1009 19.1091 16.2792 18.207C17.4885 17.2738 18.5118 16.5584 18.5428 16.6206C18.6048 16.6828 18.6978 18.1137 18.6978 19.7934C18.7598 22.6863 18.7908 22.8419 19.473 22.9352C20.1242 23.0285 20.1552 22.9352 20.1552 21.0688C20.1862 19.9801 20.2482 17.8959 20.3412 16.4339C20.4653 14.9408 20.4032 13.6655 20.2792 13.5722C20.1242 13.4788 18.5738 14.5365 16.8374 15.9051Z" fill="#B8895F"/>
<path d="M21.085 15.8118C21.085 16.5895 21.395 16.9627 23.1005 18.1448C24.2167 18.9224 25.271 19.5757 25.426 19.5757C25.6121 19.5757 25.7361 19.1402 25.7361 18.6425C25.7361 18.1137 25.6431 17.7093 25.5191 17.7093C25.364 17.7093 24.4338 17.0872 23.4105 16.3095C22.3873 15.5319 21.4571 14.9097 21.333 14.9097C21.178 14.9097 21.085 15.3141 21.085 15.8118Z" fill="#B8895F"/>
<path d="M26.3564 21.3176C26.3564 23.8994 26.3875 23.9616 27.0696 23.8683C27.6278 23.8061 27.7518 23.5883 27.7518 22.624C27.7518 21.3176 27.6898 21.2865 30.8526 23.6817L33.0231 25.3303L33.1161 30.7117C33.1782 35.8132 33.2092 36.062 33.7983 36.062C34.1394 36.062 34.4185 35.9687 34.4495 35.8132C34.5735 33.6979 34.6665 25.4858 34.5425 25.0815C34.4495 24.8015 32.744 23.3084 30.7595 21.8153C28.7751 20.3222 27.1006 19.0157 27.0386 18.8913C26.9766 18.7357 26.7906 18.6424 26.6355 18.6424C26.4805 18.6424 26.3564 19.8556 26.3564 21.3176Z" fill="#B8895F"/>
<path d="M8.68214 21.7842C6.88369 23.1529 5.20927 24.5216 4.96121 24.8015C4.58912 25.2681 4.49609 26.4191 4.49609 30.8051C4.49609 36.1865 4.49609 36.2176 5.20927 36.3109C5.89144 36.4042 5.89144 36.3731 5.89144 32.7025C5.89144 30.6806 5.98447 28.161 6.07749 27.1345L6.26354 25.2681L8.55811 23.5884C11.2248 21.6287 11.5038 21.5042 11.4108 22.2819C11.2558 24.055 12.155 24.6149 12.7442 23.0907C13.2093 21.8775 12.9922 19.4512 12.4031 19.3579C12.155 19.3268 10.4806 20.4155 8.68214 21.7842Z" fill="#B8895F"/>
<path d="M13.9536 23.4639C13.9536 23.6817 13.4264 23.9616 12.8063 24.0861C10.5427 24.4904 7.75201 26.4812 7.2869 28.0055C6.97682 28.9698 8.0931 33.8846 8.62023 33.8846C9.05434 33.8846 9.02333 33.418 8.52721 31.7071C8.43418 31.3649 8.58922 31.2094 8.99232 31.2094C9.45744 31.2094 9.61248 31.4272 9.61248 32.0182C9.61248 33.2624 9.95356 34.1956 10.4187 34.1956C10.7288 34.1956 10.7908 33.8224 10.6667 32.7025C10.5117 31.4583 10.5737 31.1783 11.1319 30.8361C11.69 30.5251 11.783 30.5251 11.783 30.9606C11.783 31.2405 12.0931 31.8626 12.4342 32.3915C12.8063 32.9203 13.2094 33.7601 13.3024 34.2578C13.5505 35.471 14.0776 35.5021 14.2016 34.3201C14.2636 33.5735 14.4807 33.2935 15.0388 33.2002C15.659 33.0758 15.783 33.2002 15.9381 34.2267C16.0621 35.0355 16.2481 35.3777 16.5582 35.2532C16.8373 35.1288 16.9303 34.6622 16.8063 33.5735C16.6822 32.267 16.7753 31.8938 17.4885 31.085L18.2947 30.0896V31.0228C18.2947 31.8004 18.4187 31.9249 19.2249 31.956C20.0311 31.9871 20.1551 31.8626 20.1551 31.1472C20.1551 30.3695 20.2171 30.4006 21.1164 31.6449C21.6435 32.3604 22.2016 32.9514 22.3567 32.9514C22.5117 32.9514 22.6357 33.6357 22.6357 34.5067C22.6357 35.6887 22.7598 36.062 23.1009 36.062C23.4419 36.062 23.566 35.6887 23.566 34.6622C23.566 33.4802 23.659 33.2624 24.1861 33.2624C24.6823 33.2624 24.8063 33.4802 24.8063 34.3823C24.8063 35.9998 25.3334 35.3777 25.7675 33.2624C26.0466 31.7382 26.2016 31.4583 26.5427 31.7382C26.7908 31.956 26.9768 32.7025 26.9768 33.6046C26.9768 34.7244 27.1009 35.1288 27.4109 35.1288C27.752 35.1288 27.9071 34.6933 27.9691 33.6357C28.0621 32.3915 28.1551 32.1737 28.7753 32.0804C29.3954 31.9871 29.4574 32.1115 29.4574 33.2313C29.4574 34.9733 29.9846 34.8489 30.2326 33.0136C30.3567 32.2048 30.5737 31.1161 30.7288 30.5873C30.9148 29.9652 30.9148 29.343 30.7288 28.8453C30.3877 27.9743 27.1629 24.5215 26.7598 24.5838C26.6357 24.6149 26.0466 24.6149 25.4574 24.5838C24.6823 24.5526 24.4652 24.4282 24.5892 24.0861C24.8683 23.4328 22.9458 23.8372 22.2947 24.5838C21.7675 25.1748 21.3334 25.0815 21.5815 24.4282C21.7675 23.9305 19.9381 23.8061 19.659 24.2727C19.535 24.4593 19.2249 24.3349 18.8838 23.9616C18.3877 23.4328 18.1706 23.3706 17.5195 23.6817C16.9613 23.9305 16.4342 23.8994 15.3799 23.5572C14.2636 23.184 13.9536 23.184 13.9536 23.4639ZM14.9768 24.7393C15.0698 24.8637 14.3567 25.828 13.3954 26.9167C11.9381 28.5654 11.4729 28.9075 10.6357 28.9075C10.1086 28.9075 9.55046 29.032 9.45744 29.2186C9.17837 29.6852 8.18612 29.5919 7.75201 29.0631C7.44194 28.6898 7.53496 28.4098 8.21713 27.4766C9.51946 25.7347 11.628 24.5526 13.3334 24.5526C14.1396 24.5526 14.8528 24.646 14.9768 24.7393ZM28.6823 26.9167C29.4574 27.7255 30.0776 28.6898 30.0776 29.032C30.0776 29.8407 29.2404 30.4006 28.1551 30.2762C27.2869 30.1829 25.4264 28.7209 25.4264 28.1299C25.4264 27.9432 25.0854 27.4455 24.6512 27.0412C23.69 26.1391 23.69 26.0458 24.7133 25.4236C25.8916 24.7082 27.0388 25.1437 28.6823 26.9167ZM18.2016 25.5169C18.5117 25.828 18.3877 26.7301 17.8295 28.4409C17.7055 28.7831 16.8373 29.6852 15.9071 30.4006C14.6357 31.4272 14.0156 31.7071 13.4884 31.5827C11.9381 31.1783 12.6512 28.3787 14.8528 26.2013C15.9381 25.1437 17.4885 24.8015 18.2016 25.5169ZM22.1086 25.828C23.4729 26.1702 24.5892 27.3833 25.3334 29.4052C25.6435 30.3073 25.6125 30.4629 24.8373 31.2094C24.0311 31.9871 24.0001 31.9871 23.566 31.3961C23.2559 30.9606 23.0388 30.8984 22.7598 31.1161C22.4807 31.3649 22.2016 31.2094 21.7985 30.5562C21.4885 30.0896 21.0233 29.4363 20.7133 29.0942C20.4342 28.7831 20.2792 28.3476 20.3722 28.0988C20.4652 27.8499 20.3722 27.6633 20.1861 27.6633C19.721 27.6633 19.752 26.3257 20.2171 25.8591C20.6512 25.4236 20.5272 25.4236 22.1086 25.828ZM19.1319 30.5251C19.0698 31.085 19.0078 30.6495 19.0078 29.5297C19.0078 28.4098 19.0698 27.9743 19.1319 28.5032C19.1939 29.0631 19.1939 29.9963 19.1319 30.5251Z" fill="#B8895F"/>
</svg>
