<svg width="29" height="29" viewBox="0 0 29 29" fill="none" xmlns="http://www.w3.org/2000/svg">
<path d="M21.6545 8.78856C20.7742 8.78856 20.8843 11.524 18.4084 13.384C18.2434 13.4934 18.1334 13.6029 17.9683 13.6576C17.8583 13.1105 17.6382 12.6181 17.3081 12.1804C18.6285 11.0863 19.7289 9.60917 19.3988 8.07735C18.9036 5.56079 14.9423 4.13838 14.172 4.84959C13.5118 5.45137 15.5475 7.31144 15.1624 10.3751C15.1624 10.5392 15.1073 10.758 15.0523 10.9222C14.7222 10.8675 14.4471 10.8675 14.172 10.9222C13.8419 9.1168 12.9616 7.14732 11.3111 6.65495C8.83523 5.99845 5.7542 8.84326 6.08431 9.88271C6.3594 10.7033 8.94527 9.7733 11.4761 11.4692C11.6962 11.6334 11.9163 11.7975 12.1363 11.9616C11.8612 12.2352 11.6412 12.6181 11.4761 13.0011C9.55047 12.6181 6.96461 12.6728 5.86424 14.2593C4.43376 16.3382 6.19435 20.2225 7.2397 20.2225C8.12 20.2225 8.00996 17.4871 10.4858 15.627C10.7609 15.4082 11.036 15.2441 11.256 15.1347C11.3661 15.627 11.5862 16.1194 11.9163 16.5024C10.4858 17.5965 9.11033 19.2378 9.44044 20.9337C9.93561 23.4503 13.8969 24.8727 14.6672 24.1615C15.3274 23.5597 13.2917 21.6996 13.6769 18.636C13.7319 18.3077 13.7869 17.9795 13.8969 17.7059C14.172 17.7607 14.5021 17.7607 14.7772 17.7607C15.2174 19.566 16.1527 21.4808 17.8583 21.8637C20.3341 22.4108 23.3051 19.3472 22.92 18.4171C22.5898 17.5965 20.059 18.6907 17.4181 17.1042C17.2531 16.9947 17.143 16.94 16.978 16.8306C17.198 16.6118 17.3631 16.393 17.5281 16.1194C19.4538 16.5024 21.9296 16.393 22.975 14.8611C24.4605 12.6181 22.6999 8.78856 21.6545 8.78856Z" fill="#457B9D"/>
<path d="M11.036 4.41192C13.6768 3.5913 15.5475 4.13838 15.7675 3.53659C15.9876 2.9348 14.282 1.95006 13.1817 1.5124C12.4114 1.18415 11.256 0.746485 10.1557 1.18415C9.88057 1.29356 9.44042 1.5124 8.50511 2.9348C7.8999 3.86484 6.52444 5.94374 7.0196 6.32669C7.40473 6.65494 8.5051 5.23253 11.036 4.41192ZM11.091 2.33301C11.256 2.2236 11.4761 2.2236 11.5861 2.27831C11.8612 2.38772 12.0813 2.77068 11.9162 3.04422C11.7512 3.37246 11.311 3.42717 11.036 3.20834C10.8159 2.98951 10.8159 2.55185 11.091 2.33301Z" fill="#457B9D"/>
<path d="M27.7616 8.18677C26.8263 6.38141 23.3051 5.6155 22.6999 6.3267C22.2047 6.87378 24.0753 7.96793 24.7356 10.5392C25.3958 13.1105 24.2404 14.8611 24.7356 15.0253C25.2307 15.1894 26.5512 13.2746 27.2664 11.4692C27.9266 9.93742 28.2568 9.06209 27.7616 8.18677ZM26.7162 8.89797C26.5512 9.22622 26.056 9.28092 25.8359 9.06209C25.5608 8.84326 25.6159 8.4056 25.8359 8.18677C26.001 8.07735 26.2211 8.07735 26.3861 8.13206C26.6612 8.24147 26.8263 8.62443 26.7162 8.89797Z" fill="#457B9D"/>
<path d="M4.04861 14.2046C3.55345 14.0405 2.28802 16.01 1.6278 17.8701C1.07761 19.4566 0.747503 20.2772 1.24267 21.2072C2.233 23.0126 5.80921 23.5597 6.41441 22.9032C6.90958 22.3561 4.92891 21.3167 4.21367 18.7454C3.49843 16.1741 4.54378 14.314 4.04861 14.2046ZM3.16832 20.6602C3.00326 21.0431 2.34304 21.1525 2.01293 20.879C1.68282 20.6055 1.73784 20.0037 2.01293 19.7848C2.233 19.6207 2.5081 19.6207 2.67315 19.7301C3.05828 19.8395 3.33337 20.3319 3.16832 20.6602Z" fill="#457B9D"/>
<path d="M17.8583 24.5444C15.2724 25.5839 13.4018 25.1462 13.2367 25.8027C13.0717 26.4045 14.8322 27.2798 15.9876 27.6081C16.8129 27.8816 17.9683 28.2099 19.0136 27.7175C19.2887 27.6081 19.6739 27.3345 20.4991 25.8574C21.0493 24.8727 22.2047 22.6844 21.7096 22.3561C21.2694 22.0279 20.2791 23.5597 17.8583 24.5444ZM18.1884 26.8969C17.8583 27.061 17.4181 26.7874 17.3631 26.4045C17.3081 26.0762 17.6382 25.748 17.9683 25.748C18.1884 25.748 18.3534 25.9121 18.4084 26.0762C18.5735 26.3498 18.4635 26.7874 18.1884 26.8969Z" fill="#457B9D"/>
</svg>
